<!-- Generated by IcoMoon.io -->
<svg version="1.1" xmlns="http://www.w3.org/2000/svg" width="32" height="32" viewBox="0 0 32 32">
<title>agenda</title>
<path d="M4.8 32c-2.651 0-4.8-2.149-4.8-4.8v-22.4c0-2.651 2.149-4.8 4.8-4.8h22.4c2.651 0 4.8 2.149 4.8 4.8v22.4c0 2.651-2.149 4.8-4.8 4.8h-22.4zM9.6 17.6h-6.4v9.6c0 0.884 0.716 1.6 1.6 1.6h4.8v-11.2zM19.2 17.6h-6.4v11.2h6.4v-11.2zM28.8 17.6h-6.4v11.2h4.8c0.884 0 1.6-0.716 1.6-1.6v-9.6zM9.6 3.2h-4.8c-0.884 0-1.6 0.716-1.6 1.6v9.6h6.4v-11.2zM19.2 3.2h-6.4v11.2h6.4v-11.2zM27.2 3.2h-4.8v11.2h6.4v-9.6c0-0.884-0.716-1.6-1.6-1.6z"></path>
</svg>
