<!-- Generated by IcoMoon.io -->
<svg version="1.1" xmlns="http://www.w3.org/2000/svg" width="256" height="512" viewBox="0 0 256 512">
<title>volRetroviseur</title>
<g id="icomoon-ignore">
</g>
<path d="M14.264 239.303c0-45.932 0-91.648 0-137.58 0-50.245 39.463-88.413 89.707-87.335 43.992 1.078 82.375 38.6 82.591 82.807 0.647 82.16 0.431 164.32 0 246.264 0 28.032-23.721 50.461-51.97 50.461-28.034-0.216-51.323-22.858-51.323-51.109-0.216-69.005-0.216-138.010 0-207.016 0-10.567 7.547-18.114 17.467-18.114 9.704 0 17.036 7.763 17.036 18.329 0 51.539 0 103.077 0 154.616 0 16.603 0 32.993 0 49.599 0 10.997 7.116 18.759 17.035 18.759 10.136 0 17.251-7.762 17.251-18.759 0-79.788 0-159.577 0-239.364 0.215-28.896-22.643-51.97-51.323-51.97-28.896 0-51.754 23.074-51.754 52.833 0 91.864-0.215 183.726 0 275.377 0 45.284 35.581 82.805 80.434 85.609 45.285 3.018 84.964-29.759 91.001-74.829 0.647-4.745 0.863-9.702 0.863-14.447 0-78.712 0-157.42 0-236.13 0-7.548 2.372-13.37 8.841-17.251 10.566-6.038 24.152 0.862 25.661 13.155 0.215 1.51 0.215 2.803 0.215 4.313 0 79.356 0 158.929 0 238.286 0 58.223-38.815 106.311-95.745 119.034-68.359 15.312-137.58-34.071-144.912-103.51-0.647-6.039-1.078-11.861-1.078-17.897 0-44.638 0-89.493 0-134.131z"></path>
</svg>
