<!-- Generated by IcoMoon.io -->
<svg version="1.1" xmlns="http://www.w3.org/2000/svg" width="32" height="32" viewBox="0 0 32 32">
<title>boost</title>
<path d="M13.474 26.618c0.216-0.111 0.438-0.225 0.671-0.347 0 0.090 0.004 0.16 0.007 0.219 0.003 0.043 0.005 0.081 0.005 0.117-0.032 0.328-0.063 0.655-0.093 0.983-0.061 0.655-0.123 1.31-0.194 1.965-0.048 0.491 0.132 0.863 0.527 1.043 0.371 0.168 0.719 0.084 1.079-0.264 0.201-0.201 0.402-0.401 0.604-0.602 0.605-0.603 1.212-1.208 1.805-1.819 1.318-1.354 2.002-2.972 2.049-4.866 0-0.192 0.072-0.3 0.216-0.419 0.286-0.222 0.575-0.442 0.863-0.661 0.737-0.561 1.472-1.121 2.17-1.724 3.032-2.613 5.525-5.645 7.083-9.372 1.27-3.032 1.726-6.184 1.462-9.456-0.072-0.947-0.419-1.258-1.33-1.33-2.445-0.192-4.83 0-7.179 0.659-3.26 0.923-6.112 2.613-8.653 4.83-2.013 1.75-3.751 3.763-5.309 5.932-0.144 0.192-0.276 0.276-0.515 0.276-1.438 0.036-2.744 0.479-3.871 1.342-0.548 0.42-1.047 0.902-1.545 1.384-0.156 0.151-0.312 0.301-0.469 0.45-0.479 0.455-0.947 0.935-1.414 1.414-0.348 0.36-0.419 0.731-0.228 1.114 0.192 0.372 0.551 0.539 1.043 0.456 0.251-0.040 0.501-0.084 0.752-0.129 0.434-0.077 0.869-0.154 1.309-0.207 0.275-0.033 0.556-0.026 0.847-0.018 0.127 0.003 0.256 0.006 0.388 0.006-0.19 0.374-0.377 0.739-0.563 1.101-0.177 0.345-0.352 0.687-0.528 1.032-0.264 0.527-0.216 0.851 0.204 1.27 0.192 0.204 0.383 0.407 0.587 0.599l0.002 0.002c0.263 0.251 0.526 0.502 0.765 0.729-0.132 0.209-0.262 0.412-0.39 0.611-0.268 0.417-0.525 0.817-0.761 1.223-0.443 0.755-0.815 1.558-0.971 2.433-0.156 0.863 0.348 1.414 1.21 1.222 0.683-0.156 1.366-0.383 1.989-0.695 0.529-0.264 1.031-0.582 1.538-0.904 0.252-0.159 0.505-0.32 0.763-0.475 0.016 0.016 0.038 0.036 0.064 0.059 0.033 0.029 0.070 0.063 0.104 0.097 0.139 0.139 0.279 0.28 0.419 0.421 0.281 0.284 0.564 0.569 0.852 0.849 0.396 0.384 0.731 0.444 1.222 0.192 0.126-0.066 0.249-0.132 0.372-0.198s0.246-0.132 0.372-0.198c0.222-0.117 0.443-0.231 0.672-0.348zM13.817 22.505c-0.123-0.124-0.245-0.247-0.368-0.369 0.077-0.119 0.158-0.233 0.237-0.343 0.167-0.233 0.325-0.455 0.422-0.699 0.192-0.551 0.323-1.127 0.419-1.702 0.052-0.377 0.041-0.764 0.029-1.151-0.002-0.056-0.003-0.111-0.005-0.167 0-0.479-0.312-0.863-0.791-0.887-0.995-0.048-2.001-0.072-2.936 0.36-0.292 0.142-0.566 0.313-0.836 0.48-0.118 0.073-0.234 0.146-0.351 0.215-0.317-0.325-0.649-0.655-0.994-0.997-0.177-0.176-0.357-0.355-0.54-0.537 0.175-0.282 0.352-0.575 0.532-0.874 0.324-0.537 0.659-1.092 1.014-1.631 1.702-2.625 3.631-5.057 5.98-7.143 2.013-1.786 4.23-3.224 6.771-4.159 0.024-0.006 0.051-0.015 0.082-0.025s0.067-0.022 0.109-0.034c0.491 1.522 1.342 2.804 2.457 3.919s2.397 1.977 3.955 2.481c-0.102 0.23-0.199 0.458-0.295 0.683-0.209 0.491-0.414 0.97-0.652 1.438-1.258 2.505-3.008 4.65-5.034 6.567-2.361 2.229-5.009 4.063-7.802 5.681-0.072 0.036-0.228 0.060-0.276 0.012-0.387-0.369-0.76-0.745-1.13-1.117zM29.94 1.882c0.156 1.87-0.012 3.727-0.444 5.561-1.869-0.42-4.494-2.804-5.153-5.117 1.175-0.407 4.087-0.635 5.597-0.443zM6.181 25.516c-0.015-0.012-0.030-0.024-0.042-0.036 0.164-0.244 0.321-0.494 0.478-0.744 0.314-0.501 0.628-1.001 0.996-1.449 0.799-0.981 1.643-1.916 2.491-2.854 0.208-0.231 0.417-0.462 0.625-0.693 0.515-0.575 1.222-0.755 2.013-0.767 0.024 0.671-0.084 1.318-0.551 1.798-1.75 1.81-3.607 3.499-5.836 4.722-0.024 0.012-0.045 0.021-0.066 0.030s-0.042 0.018-0.066 0.030c-0.012-0.012-0.027-0.024-0.042-0.036zM17.932 24.138c0.048 0.731-0.887 2.217-2.037 3.188v-1.894c0-0.048 0.060-0.132 0.108-0.156 0.324-0.192 0.644-0.381 0.965-0.569s0.641-0.378 0.965-0.569zM12.095 23.407l1.246 1.246c-0.236 0.121-0.481 0.248-0.729 0.376-0.267 0.138-0.538 0.278-0.805 0.415-0.048 0.024-0.144-0.012-0.18-0.048-0.276-0.264-0.539-0.527-0.839-0.827l-0-0c0.282-0.245 0.555-0.49 0.822-0.729 0.164-0.147 0.325-0.292 0.485-0.433zM5.282 15.766c-0.201-0.018-0.402-0.037-0.605-0.054 0.815-0.971 2.133-1.822 3.044-1.965-0.396 0.695-0.791 1.366-1.198 2.037-0.024 0.036-0.096 0.072-0.144 0.072-0.364-0.023-0.729-0.057-1.096-0.090zM7.134 18.479l0.024-0.046c0.2 0.206 0.392 0.401 0.581 0.593 0.195 0.198 0.387 0.393 0.582 0.594-0.146 0.165-0.296 0.332-0.45 0.503-0.235 0.262-0.478 0.532-0.725 0.816-0.105-0.11-0.208-0.214-0.309-0.316-0.153-0.154-0.302-0.304-0.446-0.463-0.024-0.036-0.048-0.132-0.024-0.18 0.244-0.5 0.5-0.989 0.767-1.5zM20.617 15.701c2.481 0 4.494-2.025 4.482-4.506 0-2.493-2.014-4.494-4.494-4.482-2.469 0.012-4.47 2.013-4.482 4.482s2.025 4.506 4.494 4.506zM17.92 11.207c-0.012-1.462 1.21-2.685 2.672-2.697 1.474-0.012 2.697 1.198 2.721 2.661 0.012 1.474-1.222 2.72-2.697 2.72-1.462 0-2.684-1.222-2.697-2.685z"></path>
</svg>
