<!-- Generated by IcoMoon.io -->
<svg version="1.1" xmlns="http://www.w3.org/2000/svg" width="32" height="32" viewBox="0 0 32 32">
<title>courrier</title>
<path d="M15.788 3.81c3.322 0 6.63 0 9.951 0 2.797 0 5.070 1.789 5.675 4.465 0.108 0.457 0.148 0.928 0.148 1.399 0.014 4.209 0.014 8.432 0 12.641 0 3.012-1.99 5.339-4.962 5.823-0.296 0.054-0.605 0.054-0.901 0.054-6.616 0-13.219 0-19.836 0-2.945 0-5.258-1.91-5.783-4.801-0.067-0.35-0.081-0.713-0.081-1.076 0-4.209 0-8.418 0-12.628 0-3.012 2.004-5.339 4.962-5.823 0.336-0.054 0.672-0.054 1.009-0.054 3.268 0 6.549 0 9.817 0zM28.698 9.942c-0.175 0.134-0.282 0.215-0.39 0.296-2.703 2.098-5.392 4.209-8.096 6.294-2.69 2.071-6.213 2.058-8.902-0.027-2.69-2.098-5.379-4.209-8.082-6.307-0.094-0.081-0.202-0.148-0.35-0.255 0 0.175 0 0.296 0 0.403 0 3.954 0 7.907 0 11.874 0 1.91 1.197 3.106 3.093 3.12 6.549 0 13.085 0 19.634 0 1.883 0 3.093-1.21 3.093-3.093 0-3.967 0-7.934 0-11.901 0-0.121 0-0.229 0-0.403zM27.501 7.225c-0.592-0.43-1.224-0.551-1.896-0.551-6.536 0-13.085 0-19.62 0-0.229 0-0.471 0.013-0.699 0.054-0.43 0.067-0.834 0.215-1.183 0.498 0.094 0.081 0.161 0.134 0.229 0.188 2.891 2.246 5.783 4.505 8.674 6.751 1.789 1.385 3.833 1.372 5.621-0.013 2.206-1.721 4.424-3.443 6.63-5.151 0.726-0.592 1.479-1.183 2.246-1.775z"></path>
</svg>
