<!-- Generated by IcoMoon.io -->
<svg version="1.1" xmlns="http://www.w3.org/2000/svg" width="32" height="32" viewBox="0 0 32 32">
<title>file</title>
<path d="M19.2 0c0.424 0 0.831 0.169 1.131 0.469l8 8c0.3 0.3 0.469 0.707 0.469 1.131v17.6c0 2.651-2.149 4.8-4.8 4.8h-16c-2.651 0-4.8-2.149-4.8-4.8v-22.4c0-2.651 2.149-4.8 4.8-4.8h11.2zM15.998 3.2h-7.998c-0.884 0-1.6 0.716-1.6 1.6v22.4c0 0.884 0.716 1.6 1.6 1.6h16c0.884 0 1.6-0.716 1.6-1.6v-14.4h-8c-0.821 0-1.497-0.618-1.589-1.413l-0.011-0.187-0.002-8zM24.938 9.6l-5.739-5.738 0.002 5.738h5.738z"></path>
</svg>
