<!-- Generated by IcoMoon.io -->
<svg version="1.1" xmlns="http://www.w3.org/2000/svg" width="32" height="32" viewBox="0 0 32 32">
<title>folder</title>
<path d="M28.167 11.136c0.192 0.055 0.384 0.082 0.563 0.137 2.072 0.617 3.306 2.744 2.717 4.829-0.892 3.183-1.797 6.339-2.744 9.508-0.521 1.742-1.976 2.826-3.8 2.881-0.782 0.028-1.578 0.014-2.36 0.014-6.133 0-12.252 0-18.385 0-1.893 0-3.403-1.043-3.951-2.758-0.137-0.412-0.206-0.851-0.206-1.276 0-5.666 0-11.319 0-16.985 0-2.195 1.701-3.951 3.91-4.006 1.578-0.027 3.156-0.014 4.733 0.014 0.892 0.014 1.674 0.343 2.346 0.933 0.508 0.439 0.988 0.892 1.454 1.358 0.439 0.439 0.947 0.631 1.578 0.631 3.32-0.014 6.654-0.014 9.974 0 2.14 0 3.773 1.372 4.102 3.471 0.069 0.398 0.055 0.823 0.069 1.248zM14.9 26.283c3.252 0 6.517 0 9.769 0 1.084 0 1.701-0.466 2.003-1.509 0.864-2.977 1.674-5.982 2.579-8.945 0.412-1.331-0.494-2.566-1.921-2.552-6.49 0.041-12.979 0.014-19.482 0.014-1.084 0-1.701 0.453-2.003 1.509-0.864 2.977-1.688 5.982-2.593 8.945-0.412 1.345 0.494 2.579 1.921 2.552 3.252-0.041 6.49-0.014 9.727-0.014zM2.195 19.368c0.014 0 0.041 0.014 0.055 0.014 0.027-0.096 0.055-0.178 0.082-0.274 0.466-1.605 0.96-3.197 1.372-4.802 0.549-2.058 2.277-3.238 4.267-3.224 5.845 0.041 11.676 0.014 17.52 0.014 0.151 0 0.288 0 0.48 0-0.014-0.384 0-0.741-0.055-1.070-0.178-0.892-0.919-1.441-1.907-1.441-3.32 0-6.627-0.014-9.947 0-1.235 0-2.277-0.398-3.156-1.262-0.37-0.357-0.755-0.7-1.125-1.056-0.425-0.425-0.933-0.617-1.537-0.604-1.331 0.014-2.648 0-3.979 0-1.345 0-2.058 0.713-2.058 2.044 0 3.773 0 7.546 0 11.319-0.014 0.124-0.014 0.233-0.014 0.343z"></path>
</svg>
