<!-- Generated by IcoMoon.io -->
<svg version="1.1" xmlns="http://www.w3.org/2000/svg" width="32" height="32" viewBox="0 0 32 32">
<title>home</title>
<path d="M27.2 17.6c2.651 0 4.8 2.149 4.8 4.8v4.8c0 2.651-2.149 4.8-4.8 4.8h-4.8c-2.651 0-4.8-2.149-4.8-4.8v-4.8c0-2.651 2.149-4.8 4.8-4.8h4.8zM9.6 17.6c2.651 0 4.8 2.149 4.8 4.8v4.8c0 2.651-2.149 4.8-4.8 4.8h-4.8c-2.651 0-4.8-2.149-4.8-4.8v-4.8c0-2.651 2.149-4.8 4.8-4.8h4.8zM27.2 20.8h-4.8c-0.884 0-1.6 0.716-1.6 1.6v4.8c0 0.884 0.716 1.6 1.6 1.6h4.8c0.884 0 1.6-0.716 1.6-1.6v-4.8c0-0.884-0.716-1.6-1.6-1.6zM9.6 20.8h-4.8c-0.884 0-1.6 0.716-1.6 1.6v4.8c0 0.884 0.716 1.6 1.6 1.6h4.8c0.884 0 1.6-0.716 1.6-1.6v-4.8c0-0.884-0.716-1.6-1.6-1.6zM9.6 0c2.651 0 4.8 2.149 4.8 4.8v4.8c0 2.651-2.149 4.8-4.8 4.8h-4.8c-2.651 0-4.8-2.149-4.8-4.8v-4.8c0-2.651 2.149-4.8 4.8-4.8h4.8zM27.2 0c2.651 0 4.8 2.149 4.8 4.8v4.8c0 2.651-2.149 4.8-4.8 4.8h-4.8c-2.651 0-4.8-2.149-4.8-4.8v-4.8c0-2.651 2.149-4.8 4.8-4.8h4.8zM9.6 3.2h-4.8c-0.884 0-1.6 0.716-1.6 1.6v4.8c0 0.884 0.716 1.6 1.6 1.6h4.8c0.884 0 1.6-0.716 1.6-1.6v-4.8c0-0.884-0.716-1.6-1.6-1.6zM27.2 3.2h-4.8c-0.884 0-1.6 0.716-1.6 1.6v4.8c0 0.884 0.716 1.6 1.6 1.6h4.8c0.884 0 1.6-0.716 1.6-1.6v-4.8c0-0.884-0.716-1.6-1.6-1.6z"></path>
</svg>
