<!-- Generated by IcoMoon.io -->
<svg version="1.1" xmlns="http://www.w3.org/2000/svg" width="32" height="32" viewBox="0 0 32 32">
<title>message-fill</title>
<path d="M8.771 26.308c-1.149-0.073-2.214-0.327-3.218-0.774-2.347-1.065-3.992-2.807-4.936-5.214-0.448-1.137-0.617-2.335-0.605-3.557 0-2.238 0-4.476 0-6.715 0-2.589 0.835-4.839 2.65-6.702 1.415-1.488 3.158-2.395 5.202-2.698 0.617-0.097 1.246-0.121 1.863-0.121 3.908-0.012 7.828 0 11.735 0 2.892 0 5.323 1.053 7.235 3.23 1.524 1.742 2.262 3.811 2.275 6.122 0.012 2.371 0.036 4.743 0 7.102-0.073 3.63-1.706 6.376-4.839 8.203-1.44 0.835-3.037 1.174-4.694 1.149-1.621-0.024-3.218 0.133-4.767 0.641-2.093 0.677-3.908 1.803-5.456 3.351-0.29 0.29-0.569 0.569-0.859 0.859s-0.617 0.411-1.016 0.254c-0.399-0.169-0.557-0.496-0.557-0.919 0-1.282 0-2.565 0-3.835-0.012-0.133-0.012-0.242-0.012-0.375zM8.795 15.468c1.137-0.012 2.045-0.931 2.045-2.069-0.012-1.125-0.956-2.069-2.069-2.045-1.125 0.012-2.057 0.956-2.045 2.081 0 1.125 0.932 2.045 2.069 2.033zM15.474 15.468c1.137 0.012 2.057-0.907 2.069-2.045 0-1.125-0.919-2.069-2.045-2.069-1.113-0.012-2.057 0.931-2.069 2.057s0.907 2.057 2.045 2.057zM22.188 15.468c1.137 0 2.057-0.919 2.069-2.045 0-1.125-0.932-2.069-2.057-2.069s-2.057 0.931-2.057 2.057c-0.012 1.137 0.907 2.057 2.045 2.057z"></path>
</svg>
