<!-- Generated by IcoMoon.io -->
<svg version="1.1" xmlns="http://www.w3.org/2000/svg" width="956" height="512" viewBox="0 0 956 512">
<title></title>
<g id="icomoon-ignore">
</g>
<path d="M648.534 17.067c18.852 0 34.134 15.282 34.134 34.133s-15.282 34.133-34.134 34.133h-614.4c-18.852 0-34.133-15.282-34.133-34.133s15.282-34.133 34.133-34.133h614.4zM682.667 256c0-18.851-15.282-34.133-34.134-34.133h-614.4c-18.852 0-34.133 15.282-34.133 34.133s15.282 34.134 34.133 34.134h614.4c18.852 0 34.134-15.282 34.134-34.134zM682.667 460.8c0-18.852-15.282-34.133-34.134-34.133h-614.4c-18.852 0-34.133 15.281-34.133 34.134s15.282 34.134 34.133 34.134h614.4c18.852 0 34.134-15.281 34.134-34.134zM776.534 359.462l179.2-103.462-179.2-103.461v206.923z"></path>
</svg>
