<!-- Generated by IcoMoon.io -->
<svg version="1.1" xmlns="http://www.w3.org/2000/svg" width="32" height="32" viewBox="0 0 32 32">
<title>pdf</title>
<path d="M5.607 31.059c0-1.402-0.038-2.766 0-4.091 0-0.606-0.152-0.871-0.796-0.985-1.591-0.189-3.182-0.492-4.811-0.758 0-5.569 0-11.1 0-16.707 1.818-0.265 3.637-0.53 5.607-0.833 0-2.235 0-4.432 0-6.705 0.379-0.038 0.682-0.038 0.947-0.038 4.698 0 9.395 0 14.093 0.038 0.455 0 0.985 0.227 1.288 0.53 2.576 2.5 5.114 5.076 7.652 7.615 0.265 0.265 0.53 0.72 0.53 1.099 0.038 6.781 0.038 13.562 0.038 20.344 0 0.152-0.038 0.303-0.038 0.492-8.145 0-16.252 0-24.511 0zM18.828 10.374c0-2.652 0-5.114 0-7.577-3.826 0-7.577 0-11.327 0 0 1.553 0 3.031 0 4.622 1.894-0.265 3.713-0.492 5.569-0.758 0 6.895 0 13.714 0 20.609-1.894-0.265-3.713-0.53-5.569-0.833 0 0.985 0 1.894 0 2.803 6.971 0 13.903 0 20.798 0 0-5.721 0-11.365 0-16.972-0.682 0-1.288 0-1.97 0 0 5.076 0 10.039 0 15.002-3.788 0-7.463 0-11.138 0 0-0.606 0-1.137 0-1.78 3.144 0 6.213 0 9.319 0 0-0.682 0-1.288 0-2.008-2.538 0-4.963 0-7.425 0 0-1.25 0-2.462 0-3.713 2.538 0 4.963 0 7.425 0 0-2.576 0-5.038 0-7.652-3.145 0-6.251 0-9.357 0 0-0.644 0-1.174 0-1.781 1.212 0.038 2.425 0.038 3.675 0.038zM5.872 21.701c0-0.796 0.038-1.477 0-2.159-0.038-0.758 0.152-1.023 0.985-1.061s1.743-0.303 2.5-0.72c1.061-0.568 1.402-1.667 1.326-2.841-0.114-1.174-0.606-2.197-1.78-2.425-1.705-0.303-3.447-0.303-5.19-0.417 0 3.372 0 6.478 0 9.622 0.682 0 1.364 0 2.159 0zM27.996 10.299c-2.425-2.425-4.887-4.849-7.274-7.236 0 2.311 0 4.773 0 7.274 2.538-0.038 4.963-0.038 7.274-0.038z"></path>
<path d="M15.116 17.799c0-1.212 0-2.349 0-3.561 2.463 0 4.849 0 7.35 0 0 1.174 0 2.349 0 3.561-2.387 0-4.811 0-7.349 0z"></path>
<path d="M5.834 15.337c0.227-0.492-0.417-1.44 0.796-1.402 1.061 0.038 1.591 0.455 1.591 1.402 0 0.909-0.53 1.326-1.553 1.364-1.212 0.114-0.644-0.833-0.833-1.364z"></path>
</svg>
