<!-- Generated by IcoMoon.io -->
<svg version="1.1" xmlns="http://www.w3.org/2000/svg" width="32" height="32" viewBox="0 0 32 32">
<title>teams</title>
<path d="M24.293 25.365c0.030-0.078 0.057-0.15 0.078-0.211 0.179 0.051 0.355 0.104 0.529 0.157 0.257 0.078 0.511 0.155 0.768 0.221 2.802 0.689 5.833-1.482 5.929-4.343 0.070-2.089 0.053-4.182 0.035-6.277-0.005-0.551-0.009-1.103-0.013-1.654-0.007-0.719-0.563-1.275-1.282-1.349-0.17-0.015-0.348-0.015-0.519-0.015h-13.979v-1.393c2.735 0.148 4.477-0.808 5.277-2.891 0.712-1.86 0.133-4.017-1.416-5.255-1.594-1.267-3.743-1.364-5.455-0.23-1.846 1.216-2.387 3.106-1.631 5.803h-11.044c-1.075 0-1.556 0.474-1.556 1.556 0 1.060 0.001 2.12 0.002 3.179 0.003 3.177 0.006 6.353-0.017 9.532-0.007 1.015 0.66 1.579 1.579 1.564 1.556-0.021 3.113-0.016 4.67-0.011 0.667 0.002 1.334 0.004 2.001 0.004 0.346 0 0.518 0 0.622 0.084s0.138 0.251 0.208 0.583c0.697 3.276 3.661 6.078 7.323 6.241 2.972 0.133 6.485-1.46 7.849-5.188 0.014-0.037 0.027-0.073 0.041-0.107zM10.988 23.864c-0.006-0.034-0.012-0.071-0.019-0.111h2.498c0.106 0 0.213 0.001 0.32 0.002 0.215 0.002 0.431 0.003 0.644-0.002 0.867-0.030 1.393-0.563 1.393-1.438v-8.435h6.9c0.002 0.035 0.005 0.070 0.009 0.107 0.007 0.079 0.014 0.16 0.014 0.242v0.001c0.007 2.816 0.015 5.632 0 8.449-0.015 2.831-1.838 5.181-4.484 5.811-3.254 0.778-6.396-1.119-7.219-4.351-0.023-0.079-0.037-0.163-0.055-0.275zM24.726 13.888h4.921c0.007 0.089 0.015 0.163 0.030 0.237 0 0.622 0.001 1.245 0.002 1.868 0.003 1.559 0.006 3.122-0.010 4.684-0.015 1.631-1.149 2.861-2.75 2.987-0.43 0.030-0.897-0.052-1.305-0.193-0.786-0.267-0.889-0.474-0.889-1.297v-8.287zM3.736 10.679h8.368c0 0.808 0 1.594-0.007 2.416h-2.935v7.909h-2.461v-7.871h-2.965v-2.453zM16.81 8.588c-1.468-0.007-2.624-1.171-2.624-2.646 0-1.482 1.156-2.616 2.646-2.602 1.453 0.007 2.624 1.179 2.624 2.609 0 1.438-1.208 2.639-2.646 2.639zM27.217 3.978c-1.935 0-3.469 1.512-3.476 3.432-0.007 1.927 1.512 3.469 3.432 3.469 1.927 0.007 3.476-1.519 3.484-3.432s-1.527-3.461-3.439-3.469zM27.209 5.957c0.838 0.007 1.475 0.66 1.468 1.49-0.015 0.838-0.645 1.445-1.512 1.43-0.875-0.015-1.475-0.623-1.46-1.475s0.645-1.453 1.505-1.445z"></path>
</svg>
