<!-- Generated by IcoMoon.io -->
<svg version="1.1" xmlns="http://www.w3.org/2000/svg" width="32" height="32" viewBox="0 0 32 32">
<title>theme</title>
<path d="M16.024 0.762c8.417 0.024 15.238 6.869 15.214 15.274s-6.869 15.214-15.274 15.202-15.226-6.869-15.202-15.298c0.024-8.381 6.869-15.202 15.262-15.178zM2.191 15.976c-0.012 7.619 6.167 13.821 13.762 13.833 7.619 0.012 13.833-6.179 13.845-13.786s-6.167-13.809-13.774-13.833c-7.619-0.012-13.821 6.155-13.833 13.786z"></path>
<path d="M5.655 15.595c0.19-4.393 2.024-7.595 5.655-9.726 0.393-0.238 0.726-0.214 0.988 0.036 0.25 0.238 0.262 0.571 0.071 0.988-1.726 3.679-1.393 7.167 1.131 10.345 2.774 3.512 7.845 4.476 11.75 2.345 0.274-0.143 0.536-0.119 0.774 0.059 0.238 0.19 0.333 0.441 0.25 0.738-0.036 0.131-0.107 0.262-0.179 0.381-1.774 2.988-4.357 4.822-7.797 5.405-5.619 0.952-11.191-2.857-12.357-8.441-0.155-0.774-0.202-1.559-0.286-2.131z"></path>
</svg>
