<!-- Generated by IcoMoon.io -->
<svg version="1.1" xmlns="http://www.w3.org/2000/svg" width="32" height="32" viewBox="0 0 32 32">
<title>theme-dark</title>
<path d="M16.012 0.762c8.417 0.024 15.238 6.869 15.214 15.274s-6.869 15.214-15.274 15.202c-8.405-0.012-15.226-6.869-15.202-15.298 0.024-8.381 6.869-15.202 15.262-15.179zM2.179 15.976c-0.012 7.619 6.167 13.821 13.762 13.833 7.619 0.012 13.833-6.178 13.845-13.786s-6.167-13.81-13.774-13.833c-7.619-0.012-13.821 6.155-13.833 13.786z"></path>
<path d="M14.998 7.911v-0.825c0-0.495 0.495-0.99 0.99-0.99s0.991 0.495 0.991 0.99v1.486c0 0.495-0.495 0.99-0.99 0.99s-0.99-0.495-0.99-0.99v-0.66zM9.716 8.737c0.33 0 0.495 0.165 0.66 0.33l0.99 0.99c0.33 0.495 0.33 0.99 0 1.321-0.33 0.495-0.825 0.495-1.321 0l-0.99-0.99c-0.33-0.33-0.495-0.66-0.33-1.156 0.165-0.33 0.495-0.495 0.99-0.495zM15.988 20.952c-2.641 0-4.952-2.146-4.952-4.952s2.146-4.952 4.952-4.952c2.806 0 4.952 2.146 4.952 4.952s-2.146 4.952-4.952 4.952zM23.087 9.232c-0.165-0.33-0.495-0.495-0.825-0.495-0.165 0-0.33 0-0.495 0.165l-1.321 1.321c-0.33 0.33-0.33 0.825 0 1.156 0.495 0.495 0.991 0.495 1.321 0.165 0.495-0.495 0.825-0.825 1.155-1.321 0.33-0.33 0.33-0.66 0.165-0.99zM9.715 23.263c-0.33 0-0.66-0.165-0.825-0.495-0.33-0.33-0.165-0.825 0-0.991 0.172-0.172 0.324-0.343 0.469-0.508 0.275-0.311 0.528-0.597 0.851-0.812 0.33-0.33 0.99-0.33 1.321 0s0.33 0.825 0 1.32c-0.216 0.324-0.502 0.577-0.812 0.851v0c-0.165 0.146-0.337 0.298-0.508 0.469-0.165 0.165-0.33 0.165-0.495 0.165zM21.601 22.933c0.165 0.165 0.33 0.33 0.66 0.33 0.495 0 0.825-0.165 0.825-0.495 0.165-0.495 0.165-0.825-0.165-1.156s-0.66-0.66-1.156-0.991c-0.33-0.33-0.991-0.33-1.32 0s-0.33 0.825 0.165 1.321l0.991 0.991zM7.074 16.991h1.486c0.495 0 0.991-0.495 0.991-0.991s-0.495-0.991-0.99-0.991h-1.486c-0.495 0-0.99 0.495-0.99 0.991s0.495 0.991 0.99 0.991zM24.242 15.009h0.825c0.33 0 0.825 0.495 0.825 0.991s-0.495 0.991-0.991 0.991h-1.486c-0.495 0-0.991-0.495-0.991-0.991s0.495-0.991 0.991-0.991h0.825zM14.998 23.264v1.651c0 0.495 0.495 0.991 0.99 0.991s0.991-0.495 0.991-1.155v-1.486c0-0.495-0.495-0.991-0.99-0.991s-0.99 0.495-0.99 0.991z"></path>
</svg>
